HIERARCHY
ROOT Hips
{
	OFFSET 0.00000 0.00000 0.00000
	CHANNELS 6 Xposition Yposition Zposition Zrotation Yrotation Xrotation 
	JOINT LHipJoint
	{
		OFFSET 0 0 0
		CHANNELS 3 Zrotation Yrotation Xrotation
		JOINT LeftHip
		{
			OFFSET 1.61024 -1.73873 0.75100
			CHANNELS 3 Zrotation Yrotation Xrotation
			JOINT LeftKnee
			{
				OFFSET 2.29819 -6.31424 0.00000
				CHANNELS 3 Zrotation Yrotation Xrotation
				JOINT LeftAnkle
				{
					OFFSET 2.76618 -7.60002 0.00000
					CHANNELS 3 Zrotation Yrotation Xrotation
					JOINT LeftToe
					{
						OFFSET 0.16838 -0.46263 2.02361
						CHANNELS 3 Zrotation Yrotation Xrotation
						End Site
						{
							OFFSET 0.00000 -0.00000 1.04662
						}
					}
				}
			}
		}
	}
	JOINT RHipJoint
	{
		OFFSET 0 0 0
		CHANNELS 3 Zrotation Yrotation Xrotation
		JOINT RightHip
		{
			OFFSET -1.46153 -1.73873 0.75100
			CHANNELS 3 Zrotation Yrotation Xrotation
			JOINT RightKnee
			{
				OFFSET -2.38373 -6.54924 0.00000
				CHANNELS 3 Zrotation Yrotation Xrotation
				JOINT RightAnkle
				{
					OFFSET -2.80314 -7.70157 0.00000
					CHANNELS 3 Zrotation Yrotation Xrotation
					JOINT RightToe
					{
						OFFSET -0.16142 -0.44349 2.02101
						CHANNELS 3 Zrotation Yrotation Xrotation
						End Site
						{
							OFFSET -0.00000 -0.00000 1.04381
						}
					}
				}
			}
		}
	}
	JOINT lowerback
	{
		OFFSET 0 0 0
		CHANNELS 3 Zrotation Yrotation Xrotation
		JOINT Chest
		{
			OFFSET -0.01629 1.66985 0.14750
			CHANNELS 3 Zrotation Yrotation Xrotation
			JOINT Chest2
			{
				OFFSET 0.02086 1.62378 0.20980
				CHANNELS 3 Zrotation Yrotation Xrotation
				JOINT lowerneck
				{
					OFFSET 0 0 0
					CHANNELS 3 Zrotation Yrotation Xrotation
					JOINT Neck
					{
						OFFSET -0.05690 1.78719 0.08702
						CHANNELS 3 Zrotation Yrotation Xrotation
						JOINT Head
						{
							OFFSET 0.16035 1.73871 -0.38470
							CHANNELS 3 Zrotation Yrotation Xrotation
							End Site
							{
								OFFSET 0.05645 1.80914 -0.14081
							}
						}
					}
				}
				JOINT LeftCollar
				{
					OFFSET 0 0 0
					CHANNELS 3 Zrotation Yrotation Xrotation
					JOINT LeftShoulder
					{
						OFFSET 2.83089 1.66494 -0.46008
CHANNELS 3 Zrotation Xrotation Yrotation
						JOINT LeftElbow
						{
OFFSET 0 -5.548930 -0.000000
CHANNELS 3 Zrotation Xrotation Yrotation
							JOINT LeftWrist
							{
OFFSET 0 -3.028980 -0.000000
CHANNELS 3 Zrotation Xrotation Yrotation
								JOINT lhand
								{
									OFFSET 0 0 0
CHANNELS 3 Zrotation Xrotation Yrotation
									JOINT LFingers
									{
OFFSET 0 -0.640950 -0.000000
CHANNELS 3 Zrotation Xrotation Yrotation
										End Site
										{
OFFSET 0 -0.516750 -0.000000
										}
									}
								}
								JOINT LThumb
								{
OFFSET 0 0.000000 0.000000
CHANNELS 3 Zrotation Xrotation Yrotation
									End Site
									{
OFFSET 0 -0.524640 0.524640
									}
								}
							}
						}
					}
				}
				JOINT RightCollar
				{
					OFFSET 0 0 0
					CHANNELS 3 Zrotation Yrotation Xrotation
					JOINT RightShoulder
					{
						OFFSET -2.84442 1.45761 -0.18088
CHANNELS 3 Zrotation Xrotation Yrotation
						JOINT RightElbow
						{
OFFSET 0 -5.351900 -0.000000
CHANNELS 3 Zrotation Xrotation Yrotation
							JOINT RightWrist
							{
OFFSET 0 -3.025310 -0.000000
CHANNELS 3 Zrotation Xrotation Yrotation
								JOINT rhand
								{
									OFFSET 0 0 0
CHANNELS 3 Zrotation Xrotation Yrotation
									JOINT RFingers
									{
OFFSET 0 -0.783890 -0.000000
CHANNELS 3 Zrotation Xrotation Yrotation
										End Site
										{
OFFSET 0 -0.631990 -0.000000
										}
									}
								}
								JOINT RThumb
								{
OFFSET 0 0.000000 0.000000
CHANNELS 3 Zrotation Xrotation Yrotation
									End Site
									{
OFFSET 0 -0.641640 0.641640
									}
								}
							}
						}
					}
				}
			}
		}
	}
}
MOTION
Frames: 12
Frame Time: 0.008333333333333333
-0.075700 17.858600 0.546800 -73.649000 88.495200 -55.017600 0.000000 0.000000 0.000000 -13.046400 -16.408000 -5.666800 0.000000 0.000000 0.000000 -0.482400 13.996600 -12.520000 0.793300 -5.685400 -15.874300 0.000000 0.000000 0.000000 16.749600 17.599900 -12.504800 -0.405200 -4.086500 11.320000 0.253800 -15.369300 -18.953400 -0.687400 5.300600 -14.767900 -2.211300 -0.740700 -11.158900 0.580100 -0.209200 -10.628000 1.808600 0.321300 -4.899800 -6.889600 -1.414800 -5.307700 10.446900 -2.625600 19.770200 4.406900 -0.715300 7.093900 0.000000 -0.000000 0.000000 0.641500 17.349700 17.844900 12.912900 -21.159500 2.421800 20.680000 4.488400 -14.251700 0.000000 0.000000 0.000000 -7.125000 0.000000 0.000000 -6.332900 45.074300 0.011700 0.000000 -0.000000 0.000000 -4.934800 14.444400 -27.023100 -8.468400 -14.309300 -1.064900 -32.448700 0.305900 -26.706500 0.000000 0.000000 0.000000 7.125000 0.000000 -0.000000 -1.417100 -0.814000 -1.437500
-0.093563 17.859721 0.543380 -56.894042 88.250118 -38.408945 0.000000 0.000000 0.000000 -13.197029 -15.866372 -5.617529 0.000000 0.000000 0.000000 -0.467020 13.877310 -12.572262 0.909446 -6.076948 -17.007818 0.000000 0.000000 0.000000 16.684547 17.852360 -12.323215 -0.392504 -4.022862 11.140977 0.292887 -15.378854 -18.470079 -0.750955 5.534972 -15.441024 -2.198912 -0.739772 -11.007426 0.664396 -0.227149 -10.513467 1.889563 0.305234 -4.857020 -6.892645 -1.433231 -5.252574 10.303420 -2.634410 19.936824 4.363007 -0.729763 7.137757 0.000000 0.000000 0.000000 0.929859 16.997694 14.561678 14.219091 -23.046562 2.913592 18.136567 2.128731 -13.438609 0.000000 0.000000 0.000000 -7.125000 0.000000 0.000000 -8.475678 43.929167 -0.225616 0.000000 0.000000 0.000000 -4.850237 15.243394 -25.877225 -9.129008 -15.365745 -1.234129 -30.782462 -0.217995 -26.887159 0.000000 0.000000 0.000000 7.125000 0.000000 0.000000 -0.405417 -0.568501 -0.409448
-0.115526 17.859747 0.533306 -48.630441 88.138715 -30.299313 0.000000 0.000000 0.000000 -13.403956 -15.616858 -5.544726 0.000000 0.000000 0.000000 -0.469226 13.885652 -12.542955 0.868895 -5.943571 -16.620728 0.000000 0.000000 0.000000 16.517543 17.956256 -12.483234 -0.417526 -4.147331 11.491467 0.279415 -15.237485 -18.404928 -0.784812 5.655412 -15.787832 -2.188710 -0.803346 -10.814493 0.739247 -0.331986 -10.390741 1.956343 0.245209 -4.823481 -6.943112 -1.405445 -5.443560 10.328346 -2.603021 20.379794 4.395385 -0.701350 7.313832 0.000000 0.000000 0.000000 1.202777 16.755438 9.741606 16.257683 -25.868475 3.757855 17.547855 -1.099394 -14.499957 0.000000 0.000000 0.000000 -7.125000 0.000000 0.000000 -9.255068 44.952752 -0.010690 0.000000 0.000000 0.000000 -4.829636 14.911247 -24.700710 -9.544893 -16.024532 -1.346615 -29.993246 0.439867 -27.115483 0.000000 0.000000 0.000000 7.125000 0.000000 0.000000 0.098800 -0.613654 0.099926
-0.128689 17.861021 0.531858 -48.786537 87.822835 -30.593821 0.000000 0.000000 0.000000 -13.240822 -15.307778 -5.445076 0.000000 0.000000 0.000000 -0.449673 13.780279 -12.726256 0.811026 -5.747056 -16.052183 0.000000 0.000000 0.000000 16.767018 18.125296 -12.219672 -0.403047 -4.075935 11.290291 0.296830 -15.253477 -18.202789 -0.764426 5.582967 -15.579080 -2.011956 -0.825272 -10.987599 0.951510 -0.381230 -10.166392 2.076167 0.203178 -4.483214 -6.854891 -1.339484 -5.477993 10.207026 -2.507615 20.706891 4.356240 -0.649941 7.415738 0.000000 0.000000 0.000000 1.455425 16.281167 6.972955 18.096950 -28.280768 4.595230 15.493064 -2.310903 -15.481379 0.000000 0.000000 0.000000 -7.125000 0.000000 0.000000 -11.386019 45.700493 0.199341 0.000000 0.000000 0.000000 -4.621333 15.055190 -20.365762 -10.618903 -17.701573 -1.658262 -29.552101 -2.120485 -27.650731 0.000000 0.000000 0.000000 7.125000 0.000000 0.000000 0.451145 -1.078505 0.459441
-0.152272 17.862126 0.528643 -45.158174 87.682445 -27.105717 0.000000 0.000000 0.000000 -13.305849 -15.108564 -5.413854 0.000000 0.000000 0.000000 -0.457506 13.803034 -12.604476 0.814053 -5.756957 -16.081027 0.000000 0.000000 0.000000 16.738330 18.344892 -12.164511 -0.410430 -4.112568 11.393557 0.328759 -15.411696 -18.051059 -0.833409 5.823900 -16.274285 -1.970780 -0.828627 -10.782258 1.025787 -0.400624 -10.110818 2.130202 0.189146 -4.533920 -6.630855 -1.247756 -5.434533 10.097676 -2.395546 21.088413 4.300768 -0.577219 7.519010 0.000000 0.000000 0.000000 1.737101 15.898257 4.334610 19.694457 -30.272225 5.376557 15.062003 -2.899964 -16.439660 0.000000 0.000000 0.000000 -7.125000 0.000000 0.000000 -12.060186 46.608767 0.485611 0.000000 0.000000 0.000000 -4.230650 14.704527 -17.014820 -11.688689 -19.335864 -1.998233 -28.188769 -2.226943 -27.011244 0.000000 0.000000 0.000000 7.125000 0.000000 0.000000 1.145047 -0.058724 1.146494
-0.171878 17.863728 0.516364 -46.604868 87.541999 -28.712618 0.000000 0.000000 0.000000 -13.208536 -15.003793 -5.352313 0.000000 0.000000 0.000000 -0.429460 13.627837 -12.807139 0.694196 -5.310762 -14.800746 0.000000 0.000000 0.000000 16.876924 18.343563 -11.939956 -0.394531 -4.033055 11.169787 0.349555 -15.457084 -17.848475 -0.824877 5.793508 -16.186786 -1.598942 -0.876735 -10.863002 1.231844 -0.504168 -9.863820 2.129476 0.107633 -4.218516 -6.674876 -1.142098 -5.530450 9.803184 -2.192091 21.341257 4.232292 -0.503450 7.599594 0.000000 0.000000 0.000000 1.540658 15.214525 3.379863 20.724124 -31.504721 5.905187 15.319780 -2.717450 -15.886158 0.000000 0.000000 0.000000 -7.125000 0.000000 0.000000 -11.660108 46.086085 0.317139 0.000000 0.000000 0.000000 -4.132262 14.550758 -11.809214 -13.296935 -21.720445 -2.562324 -27.311409 -3.576749 -26.193492 0.000000 0.000000 0.000000 7.125000 0.000000 0.000000 1.538577 1.018445 1.511540
-0.192793 17.856852 0.505353 -42.130384 87.567411 -24.314178 0.000000 0.000000 0.000000 -13.267378 -14.976082 -5.529442 0.000000 0.000000 0.000000 -0.304082 12.796454 -13.575982 0.197847 -2.864107 -7.900566 0.000000 0.000000 0.000000 16.639049 18.358471 -12.380605 -0.445828 -4.284167 11.877595 0.314684 -15.280823 -18.011432 -0.854729 5.896121 -16.483254 -1.486532 -0.803885 -10.693789 1.200840 -0.423317 -9.840272 2.040281 0.138839 -4.289887 -6.536814 -1.158551 -5.696520 9.536581 -2.182985 21.668280 4.128853 -0.500971 7.734760 0.000000 0.000000 0.000000 1.615795 14.926741 2.387301 21.378674 -32.267639 6.250890 15.077182 -3.730022 -16.435190 0.000000 0.000000 0.000000 -7.125000 0.000000 0.000000 -12.046531 46.605833 0.485851 0.000000 0.000000 0.000000 -3.864302 14.292572 -8.666135 -14.643026 -23.646193 -3.081468 -27.004029 -4.039736 -27.130773 0.000000 0.000000 0.000000 7.125000 0.000000 0.000000 1.864717 0.090275 1.862685
-0.209577 17.857574 0.500869 -39.427839 87.550613 -21.627910 0.000000 0.000000 0.000000 -13.373334 -14.946387 -5.609981 0.000000 0.000000 0.000000 -0.321972 12.879017 -13.393298 0.217310 -3.000138 -8.279203 0.000000 0.000000 0.000000 16.487820 18.579156 -12.438283 -0.456209 -4.332854 12.015023 0.337417 -15.436965 -17.978110 -0.897720 6.037947 -16.894697 -1.450533 -0.818302 -10.708893 1.283526 -0.450827 -9.748913 2.104423 0.120518 -4.181836 -6.343776 -1.066851 -5.798634 9.226281 -2.018273 21.593500 4.001200 -0.437222 7.711023 0.000000 0.000000 0.000000 1.528002 14.670441 1.906934 22.100344 -33.090136 6.640546 13.661627 -8.485170 -18.610787 0.000000 0.000000 0.000000 -7.125000 0.000000 0.000000 -14.078868 48.575433 1.265164 0.000000 0.000000 0.000000 -3.901008 14.068752 -4.774099 -15.983495 -25.498054 -3.638960 -27.764921 -6.151523 -28.154816 0.000000 0.000000 0.000000 7.125000 0.000000 0.000000 1.580928 -1.175792 1.613803
-0.229983 17.860416 0.493306 -38.651412 87.564081 -20.849044 0.000000 0.000000 0.000000 -13.418798 -14.976814 -5.682697 0.000000 0.000000 0.000000 -0.332006 12.950575 -13.343132 0.217752 -3.003906 -8.289733 0.000000 0.000000 0.000000 16.392282 18.663717 -12.532683 -0.460043 -4.350966 12.066340 0.330134 -15.427252 -18.059560 -0.848678 5.875542 -16.423680 -1.333589 -0.830600 -10.575903 1.365951 -0.484423 -9.663437 2.122982 0.094694 -4.160941 -6.158270 -0.987634 -6.046588 8.960638 -1.875233 21.301501 3.882659 -0.385072 7.645138 0.000000 0.000000 0.000000 1.369810 14.828661 0.939464 23.171155 -34.275299 7.234455 12.496464 -13.113709 -19.706167 0.000000 0.000000 0.000000 -7.125000 0.000000 0.000000 -15.587003 49.478119 1.759332 0.000000 0.000000 0.000000 -4.224031 14.469891 0.766969 -18.176798 -28.382083 -4.633467 -27.967321 -8.506417 -25.546413 0.000000 0.000000 0.000000 7.125000 0.000000 0.000000 1.048100 1.563075 1.019324
-0.253544 17.862241 0.487280 -38.414601 87.639580 -20.617992 0.000000 0.000000 0.000000 -13.448010 -15.077934 -5.768751 0.000000 0.000000 0.000000 -0.347238 13.032002 -13.206438 0.238475 -3.142986 -8.677157 0.000000 0.000000 0.000000 16.302344 18.669202 -12.658222 -0.465420 -4.375931 12.136658 0.334172 -15.455064 -18.054993 -0.844472 5.861385 -16.382615 -1.189819 -0.717025 -10.164191 1.327961 -0.356220 -9.631118 2.012537 0.147302 -4.357772 -6.359208 -0.950123 -6.155461 9.444432 -1.868489 20.133029 4.047916 -0.384502 7.284690 0.000000 0.000000 0.000000 1.479271 16.071403 -2.408373 25.990934 -37.199408 8.882341 14.125625 -9.051780 -19.930962 0.000000 0.000000 0.000000 -7.125000 0.000000 0.000000 -14.133223 49.946797 1.754461 0.000000 0.000000 0.000000 -5.247200 16.856382 10.010207 -23.055630 -34.148565 -7.169920 -26.524649 -15.137317 -25.090770 0.000000 0.000000 0.000000 7.125000 0.000000 0.000000 1.851239 2.368258 1.774108
-0.259416 17.862247 0.478431 -42.242789 87.816950 -24.329331 0.000000 0.000000 0.000000 -13.371840 -15.350073 -5.899975 0.000000 0.000000 0.000000 -0.348978 13.046554 -13.202011 0.250548 -3.220948 -8.894517 0.000000 0.000000 0.000000 16.290719 18.397197 -12.928526 -0.470407 -4.398968 12.201825 0.332411 -15.388381 -17.960021 -0.896971 6.036181 -16.889318 -0.974391 -0.661121 -9.944290 1.332735 -0.291781 -9.704766 1.901257 0.171593 -4.561192 -6.337285 -0.909576 -6.028911 9.694170 -1.821979 18.313614 4.082014 -0.390566 6.672766 0.000000 0.000000 0.000000 2.669706 18.214253 -10.359874 30.919581 -41.668017 12.016618 14.661089 -10.399958 -20.734210 0.000000 0.000000 0.000000 -7.125000 0.000000 0.000000 -13.937026 50.823881 2.033834 0.000000 0.000000 0.000000 -8.017592 20.510443 21.583717 -31.232526 -41.924671 -12.225693 -21.342698 -17.211888 -23.090067 0.000000 0.000000 0.000000 7.125000 0.000000 0.000000 4.799880 5.458126 4.336891
-0.250890 17.867473 0.478584 -44.348741 87.954060 -26.567013 0.000000 0.000000 0.000000 -13.551089 -15.429786 -5.506228 0.000000 0.000000 0.000000 -0.404789 13.427378 -12.875867 0.456074 -4.325918 -11.996376 0.000000 0.000000 0.000000 16.350665 18.228671 -12.509754 -0.442997 -4.270533 11.839065 0.337421 -15.436779 -17.978120 -0.845002 5.863264 -16.388118 -0.952994 -0.732902 -10.197871 1.389336 -0.407116 -9.409150 1.939861 0.099893 -4.099416 -6.215981 -0.646558 -5.823924 10.124383 -1.458674 15.533993 4.161659 -0.251035 5.730699 0.000000 0.000000 0.000000 6.475554 21.225507 -24.540093 39.465952 -47.744716 18.044620 11.243261 -10.020338 -19.844359 0.000000 0.000000 0.000000 -7.125000 0.000000 0.000000 -16.819895 49.424353 1.882992 0.000000 0.000000 0.000000 -13.516183 23.346735 36.290190 -42.387871 -49.416660 -20.236461 -17.756664 -17.556391 -22.743917 0.000000 0.000000 0.000000 7.125000 0.000000 0.000000 7.009911 6.370238 6.236778
